# xmcd CD database file
#
# Track frame offsets:
#	150
#	15145
#	28877
#	43110
#	55330
#	69847
#	83882
#	100590
#	110130
#	129540
#	141087
#	165335
#	175605
#	193100
#
# Disc length: 2968 seconds
#
# Revision: 0
# Processed by: cddbd v1.5.2PL0 Copyright (c) Steve Scherf et al.
# Submitted via: CDex 1.51
#
DISCID=b10b960e
DTITLE=Various Artist - Love Is My Only Crime - Part Two, Cd1
DYEAR=1994
DGENRE=Country
TTITLE0=The Minus 5 - I Still Miss Someone 
TTITLE1=The Picketts - Ring Or A Prayer 
TTITLE2=Linda Heck -  	Professor Of Love
TTITLE3=Pat Thomas - All Things Must Pass
TTITLE4=David Olney - When I Fall In Love
TTITLE5=Compulsive Gamblers - Baby Got To Love You
TTITLE6=Jimmy Reitzler - No Longer Here
TTITLE7=The Hitsville Houseband - Ugly And Old
TTITLE8=Johnny Profit and The Glass Cowboys - Venus With A Gun
TTITLE9=Young Fresh Fellows - For The Love Of A Girl
TTITLE10=The Grifters - Tat
TTITLE11='68 Comeback - Love Never Treated Me Right
TTITLE12=Merricks - Für Immer Sein
TTITLE13=The Skatalites - Skandy
EXTD=YEAR: 1994
EXTT0=
EXTT1=
EXTT2=
EXTT3=
EXTT4=
EXTT5=
EXTT6=
EXTT7=
EXTT8=
EXTT9=
EXTT10=
EXTT11=
EXTT12=
EXTT13=
PLAYORDER=
